<?xml version="1.0" encoding="utf-8"?>
<!-- Generator: Adobe Illustrator 21.1.0, SVG Export Plug-In . SVG Version: 6.00 Build 0)  -->
<svg version="1.1" id="Capa_1" xmlns="http://www.w3.org/2000/svg" xmlns:xlink="http://www.w3.org/1999/xlink" x="0px" y="0px"
	 viewBox="0 0 425.2 425.2" style="enable-background:new 0 0 425.2 425.2;" xml:space="preserve">
<style type="text/css">
	.st0{fill:#0E0E0E;}
	.st1{fill:#F8F8F8;}
	.st2{fill:#060606;}
	.st3{fill:#090909;}
	.st4{fill:#363434;}
</style>
<g>
	<g>
		<path class="st0" d="M233.7,251.5c-2.3-0.7-2.3,1.2-3.1,2.3c-4.2,5.1-9.2,9.1-16,11c-1,0.2-1.9,0.3-2.9,0.5
			c-2.3,0.2-4.6,0.3-6.9-0.1c-1.1-0.4-2.3-0.8-3.4-1.2c-3.4-2-6.5-4.5-10.2-6c-5.9-2.3-11.8-2.7-17.3,1.1c-1,0.5-1.7,1.2-2.2,2.1
			c-0.3,0.4-0.6,0.8-0.9,1.2c-0.8,1.2-1.4,2.4-1.4,3.8c-0.5,0.9-0.3,2-0.5,2.9c-0.2,1.6-0.2,3.3-1.5,4.6c-1.2,1.2-2.8,0.8-4.6,0.8
			c0.3,0.5,0.4,0.7,0.6,0.9c2.4,2.3,6.2,1.3,8.3-2.2c1.7-1.1,1.2,1.4,2.5,1.2c-0.2-2.2-0.5-4.3-0.1-6.5c0.5-0.1,0.5-0.5,0.6-0.8
			c1.9-3.6,4.6-5,9-4.6c3.6,0.3,6.7,1.7,9.7,3.3c1.4,0.9,2.8,1.8,4.3,2.7c0.9,0.6,1.8,1.3,2.7,1.9c1.3,1.1,2.7,2.2,4.2,3
			c9.1,6.9,16,7.5,25.6,2.5c0.7-0.2,1.2-0.6,1.7-1c5.2-3.7,8.9-8.3,9.5-14.4C242,255.3,238.9,251.9,233.7,251.5z"/>
		<path class="st0" d="M240.1,246.7c-3.4-6.1-10.4-8.9-17.5-7c-1.3,0.4-2.7,0.8-4.1,1c-3.6,0.7-7.1,0.2-9.4-2.5
			c-1.6-1.9-2.4-1.3-3.7,0c-1.1,1.1-2.3,2.5-4.2-0.1c0.2,2.3,0.7,3.9,1.7,5.4c0.8,1.9,2,3.5,3.8,4.6c1,1.1,2.3,1.7,3.6,2.2
			c1.5,0.7,2.9,1.3,4.6,1.3c4.1,1,8,0,11.9-0.9c0.6,0,1.3-0.1,1.9-0.1c0.6,0,1.3-0.1,1.9-0.1c0.3,0,0.6,0,0.9,0.1
			c1.9,0.4,3.7,0.8,5.6,1.3c1.6,1,3.1,2.1,4.1,3.7c1.1,2.3,1.2,4.8,1.5,7.3c0.3-2.6,1.1-5.1,0.3-7.6
			C242.9,252,241.8,249.3,240.1,246.7z"/>
		<path class="st0" d="M233.6,184.3c0.8-0.9,1.8-1.5,2.9-1.9c3.7-1.5,7.7-2.6,9-7.1c2.7-6.5,4.9-13.2,7-20c0.3-1.4,0.7-2.7,1.9-3.6
			c3-4.5,7.3-7.1,12.5-8.5c-2.9,2.4-6.4,3.9-8.8,7c0.3,0.1,0.5,0.3,0.8,0.4c0.1,0,0.3,0,0.4,0c2.8-1.6,5.6-3.1,8.4-4.7
			c6.5-4,13.1-8,20-12.3c-0.8,4-1,7.7-3.3,10.7c-1.2,2.5-3.6,3.5-5.8,4.8c-2.1,1.5-4.2,3-6.7,4.7c2.3,0.6,3.3-1.1,4.8-1.2
			c1.5-0.8,3.1-1.7,5.1-2.8c-0.6,1.8-1,3-1.4,4.2c-0.4,2.9-1.9,4.9-4.7,6.2c-3,1.4-5.7,3.2-8.6,4.8c3.6-0.1,6.4-2.4,10.2-3
			c-1.9,4-2.2,8.4-6.3,10.6c-1.4,1.2-3.1,1.6-4.9,1.9c-1.1,0.4-2.4,0.6-3.3,1.3c-0.9,0.7,0.5,0.3,0.6,0.7c2.2-0.3,4.3-0.6,6.8-1
			c-0.8,2.1-1.4,4.1-2.2,5.9c-0.5,1.2-1.7,1.6-3,1.5c-2.3,1-4.7,0.9-7.2,1c-0.6,0.1-1.1,0.1-1.7,0.2c0.4,0.9,1.3,0.9,2,1
			c2.1,0.4,4.2,0.7,6.3,1.1c0.4,0.1,1.3-0.3,1.1,1c-0.6,3.2-2.7,4.8-5.8,4.2c-2.3-0.4-4.5-0.8-6.8-1.2c0,0.2-0.1,0.3-0.1,0.5
			c1.3,0.7,2.7,1.5,4,2.2l0,0c1.3,0.5,3.4,0.9,3.3,1.9c-0.3,1.4-1.8,2.7-3.4,3.2c-1.5,0.5-2.7-0.6-4-1.3c-0.7-0.2-1.4-0.5-2.1-0.7
			c-0.4-0.2-0.7-0.4-1.1-0.6c0.4,0.2,0.7,0.4,1.1,0.6c-0.2,0.2-0.4,0.4-0.5,0.6c0.9,0.7,1.8,1.3,2.7,2c0.4,0.3,0.7,0.4,0.5,1.1
			c-0.2,0.6-3.4,3.3-7.2,2.5c-2.5-0.5-4-2.3-4.6-3.1c-0.5,0.3,0.1,2,0.2,2c0.4,0.3,0.9,0.8,1.8,1.2c1.4,0.8,2.4,0.8,2.5,1.2
			c0.1,0.3-0.4,0.7-1.8,1.5c-2.5,1.5-3.7,2.2-4.4,2c-1.7-0.6-1.5-4.7-2.2-4.8c-0.7,0-0.5,3.9-2.9,5.7c-1.5,1.1-3.4,1-4.7,0.8
			c-0.3-2.2-0.4-4.2-0.6-5.8c-0.2-2.4-0.2-3.6-0.4-6.2c-0.1-2.2-0.3-4.2-0.5-5.8c0.1-0.4,0.3-0.8,0.4-1.1
			C230.2,187,232.1,185.3,233.6,184.3z"/>
		<path class="st0" d="M170.1,183.5c-0.8-0.9-1.9-1.5-3.1-2c-3.9-1.5-8.1-2.7-9.5-7.2c-2.8-6.6-5.2-13.3-7.4-20.1
			c-0.4-1.4-0.8-2.7-2-3.7c-3.2-4.6-7.7-7.2-13.1-8.6c3.1,2.4,6.8,4,9.3,7.1c-0.3,0.1-0.5,0.3-0.8,0.4c-0.1,0-0.3,0-0.4,0
			c-3-1.6-5.9-3.1-8.9-4.7c-6.9-4.1-13.8-8.1-21-12.4c0.9,4,1.1,7.8,3.5,10.8c1.3,2.5,3.8,3.5,6.1,4.8c2.2,1.5,4.5,3,7.1,4.8
			c-2.4,0.6-3.5-1.1-5.1-1.2c-1.6-0.9-3.2-1.7-5.4-2.9c0.7,1.8,1.1,3,1.5,4.2c0.5,3,2,5,4.9,6.3c3.1,1.4,6,3.2,9,4.9
			c-3.8-0.1-6.8-2.4-10.7-3.1c2,4,2.3,8.5,6.6,10.7c1.4,1.2,3.3,1.6,5.1,2c1.2,0.4,2.5,0.6,3.4,1.3c1,0.8-0.6,0.3-0.6,0.7
			c-2.3-0.3-4.6-0.6-7.1-1c0.8,2.1,1.4,4.1,2.3,6c0.6,1.2,1.8,1.6,3.1,1.5c2.4,1,5,0.9,7.5,1c0.6,0.1,1.2,0.1,1.7,0.2
			c-0.4,0.9-1.3,0.9-2.1,1c-2.2,0.4-4.4,0.7-6.6,1.1c-0.5,0.1-1.4-0.3-1.1,1c0.6,3.2,2.8,4.8,6.1,4.3c2.4-0.4,4.8-0.8,7.1-1.2
			c0,0.2,0.1,0.3,0.1,0.5c-1.4,0.7-2.8,1.5-4.2,2.2h0c-1.3,0.5-3.6,0.9-3.4,1.9c0.3,1.4,1.9,2.7,3.6,3.3c1.6,0.5,2.9-0.6,4.2-1.3
			c0.7-0.2,1.5-0.5,2.2-0.7c0.4-0.2,0.8-0.4,1.1-0.6c-0.4,0.2-0.8,0.4-1.1,0.6c0.2,0.2,0.4,0.4,0.6,0.6c-0.9,0.7-1.9,1.3-2.8,2
			c-0.4,0.3-0.8,0.4-0.5,1.1c0.2,0.7,3.6,3.3,7.5,2.5c2.6-0.5,4.2-2.3,4.9-3.1c0.6,0.3-0.1,2-0.2,2c-0.4,0.3-1,0.8-1.8,1.2
			c-1.5,0.8-2.5,0.8-2.6,1.2c-0.1,0.4,0.4,0.7,1.9,1.6c2.6,1.5,3.9,2.3,4.6,2c1.8-0.6,1.6-4.8,2.3-4.8c0.8,0,0.6,3.9,3.1,5.7
			c1.5,1.1,3.6,1,5,0.8c0.3-2.2,0.4-4.2,0.6-5.9c0.2-2.4,0.2-3.6,0.4-6.3c0.1-2.2,0.3-4.2,0.5-5.8c-0.1-0.4-0.3-0.8-0.5-1.2
			C173.7,186.3,171.7,184.6,170.1,183.5z"/>
		<g>
			<g>
				<path class="st1" d="M206.4,188.6c6.1,0,11.2,4.6,11.1,10.1c0,5.6-5,10.1-11.1,10.1c-6.2,0-11.1-4.6-11.1-10.1
					C195.2,193.1,200.3,188.6,206.4,188.6z M206.3,190.6c-4.9,0-8.9,3.6-8.9,8.2c0,4.5,4.1,8.1,9,8.1c4.9,0,8.9-3.7,8.9-8.1
					C215.3,194.2,211.3,190.6,206.3,190.6z"/>
				<path class="st2" d="M210,179.5c1.5,0,2.7,0.4,3.7,1.4c0.6,0.6,0.9,1.4,1.2,2.1c0.2,0.5,0.5,1,0.7,1.5c0.3,0.7,0.9,1,1.6,1
					c0.9,0,1.9,0,2.8,0c2.2,0,3.9,0.9,4.8,2.7c0.3,0.6,0.4,1.3,0.4,2c0,6,0,12,0,18c0,2.7-2.2,4.7-5.2,4.7c-12.1,0-24.1,0-36.2,0
					c-2.2,0-3.8-0.9-4.8-2.8c-0.3-0.6-0.4-1.3-0.4-1.9c0-6,0-11.9,0-17.9c0-2.3,1.4-4,3.7-4.6c0.6-0.2,1.3-0.2,1.9-0.1
					c0.5,0,0.9-0.2,1.2-0.6c0.3-0.5,0.7-0.7,1.3-0.7c0.3,0,0.6,0,0.9,0c0.7,0,1.2,0.2,1.5,0.8c0.2,0.4,0.5,0.5,1,0.5c2,0,4,0,6,0
					c0.8,0,1.3-0.3,1.7-1c0.4-0.8,0.8-1.6,1.2-2.4c0.9-1.7,2.3-2.5,4.4-2.5C203.8,179.5,209.8,179.5,210,179.5z M206.3,188.6
					c-6.1,0-11.1,4.5-11.1,10.1c0,5.6,4.9,10.1,11.1,10.1c6.1,0,11.1-4.5,11.1-10.1C217.5,193.2,212.5,188.6,206.3,188.6z
					 M193.4,189.9c-1,0-1.8,0.7-1.8,1.6c0,0.9,0.8,1.6,1.8,1.6c1,0,1.8-0.7,1.8-1.6C195.2,190.6,194.4,189.9,193.4,189.9z"/>
				<path class="st1" d="M193.4,189.9c1,0,1.8,0.8,1.8,1.6c0,0.9-0.8,1.6-1.8,1.6c-1,0-1.8-0.8-1.8-1.6
					C191.6,190.6,192.5,189.9,193.4,189.9z"/>
			</g>
			<path class="st2" d="M206.3,190.6c5,0,9,3.6,9,8.1c0,4.5-4.1,8.1-8.9,8.1c-4.9,0-9-3.7-9-8.1
				C197.4,194.1,201.4,190.6,206.3,190.6z"/>
		</g>
		<g>
			<path class="st3" d="M203.3,131.7c-3.8,0.4-6.7-1-7.5-1.4c-0.7-0.3-1.2-0.7-1.6-0.9c0.6,1.1,1.5,2.9,1.8,5.2
				c0.1,1.1,0.3,3.4-1.7,8.8c-1.1,3.1-1.5,2.9-3.1,7c-1.9,4.9-5.3,9.9,0.2,14.8c0.1,0.2,0.3,0.4,0.4,0.6c2.6,3.6,6.2,6.4,9.4,9.5
				c1.1,1,1.7,0.7,2.6-0.1c3.7-3.4,7.4-6.9,10.5-10.8c2.1-2.7,2.7-5.5,1.4-8.6c-2.1-4.9-4-9.8-6-14.7c-1.1-2.7-0.9-4.5-0.9-5.8
				c0-2.5,0.6-4.5,1-5.9C209,129.9,206.7,131.4,203.3,131.7z M201.2,134.1c0.3-0.2,0.6,0.1,1.4,0.1c0.7,0,0.9-0.3,1.3-0.1
				c0.4,0.2,0.5,0.8,0.5,0.9c0.1,0.5-0.2,0.9-0.7,1.6c-0.2,0.3-0.5,0.7-0.9,1.1c-0.4-0.2-1.8-1.2-1.9-2.5
				C200.8,134.9,200.8,134.4,201.2,134.1z"/>
			<path class="st3" d="M183.2,114.2c2.4,0.8,6.3,2.5,10.1,5.8c4.1,3.6,6.1,7.3,7.1,9.6c-1.6-0.1-6.9-0.8-11.5-4.9
				C184.3,120.5,183.4,115.6,183.2,114.2z"/>
			<path class="st3" d="M220.5,114.2c-2.4,0.8-6.3,2.5-10.1,5.8c-4.1,3.6-6.1,7.3-7.1,9.6c1.6-0.1,6.9-0.8,11.5-4.9
				C219.5,120.5,220.3,115.6,220.5,114.2z"/>
			<polygon class="st3" points="201.1,103.1 195.3,117.2 201.9,129 207.9,118.3 			"/>
		</g>
		<path class="st3" d="M188.7,164.1c-3.4,2.6-10.3,8.6-11,17.3c-0.1,1.1-0.1,2.1,0,3.1l5.1-0.4c0.4-0.4,1.1-1.1,2.4-1.5
			c0.4-0.1,2.1-0.6,3.6,0.2c0.6,0.3,1,0.8,1.2,1.1l5.8-0.1c0-0.7,0.2-2.1,1.3-3.4c0.3-0.3,0.8-1,1.9-1.5c1.2-0.6,2.3-0.6,2.9-0.6
			C197.5,173.6,193.1,168.9,188.7,164.1z"/>
		<path class="st3" d="M204.2,178.2c1.8-0.3,3.3-0.3,4.3-0.2c1.1,0.1,2.3,0.2,3.6,0.8c1.5,0.7,2.4,1.6,3.1,2.2
			c0.6,0.6,1.5,1.7,2.2,3.2c2.3,0.1,4.7,0.3,7,0.4c0-2.6-0.3-6.5-2.1-11c-1.6-4.2-3.9-7.3-5.6-9.3
			C212.5,168.9,208.4,173.5,204.2,178.2z"/>
		<path class="st0" d="M223.2,215.1h-38.5c-2.3,3.8-3.8,7.5,2.5,11.2c0.2,0.2,0.4,0.4,0.7,0.6c3.9,3.6,9.4,6.4,14.3,9.5
			c1.6,1,2.6,0.7,3.9-0.1c5.7-3.4,11.3-6.9,16-10.8c3.2-2.7,4.2-5.5,2.1-8.6C223.9,216.2,223.5,215.6,223.2,215.1z"/>
		<path d="M24.8,221.8l0.2-1.1l0.4-0.3c0.5-0.2,1.5-0.4,3-0.8c1.5-0.4,2.6-0.8,3.5-1.1c0.1-0.1,0.2-0.7,0.4-1.6
			c0.4-1.5,0.7-2.5,1-3.2c0.3-0.6,0.8-1.4,1.5-2.1c0.7-0.8,2-1.9,3.9-3.3c1.9-1.4,3.6-2.7,5.2-3.7c1.6-1,2.8-1.7,3.6-2
			c0.8-0.3,1.7-0.4,2.6-0.4c1,0,2,0.2,3,0.5c-0.9,2.7-1.5,5.2-1.9,7.8l-1,0.2c-1.7-2.4-3.4-3.5-5.1-3.5c-0.6,0-1.2,0.2-1.7,0.5
			c-0.5,0.3-1,0.8-1.3,1.4c-0.3,0.6-0.7,1.9-1.3,4c-0.5,2.1-1,4.1-1.4,6h0.8c0.4,0,1.7,0,3.7-0.1c2-0.1,3.3-0.2,3.9-0.3l0.3,0.5
			c-0.5,1.1-0.8,2.1-1,2.8l-0.4,0.3c-0.8,0-2.3-0.1-4.5-0.1c-1.8,0-3,0-3.5,0.1l-2.6,10.4c-1.1,4.3-2.1,8-3.1,11.3
			c-1.3,4.4-2.6,7.7-3.9,10s-2.9,4.3-4.9,6.1s-3.8,3-5.3,3.7c-1,0.4-1.9,0.6-2.8,0.6c-0.8,0-1.6-0.2-2.5-0.5
			c1.1-2.5,1.8-4.7,2.2-6.6l1.1-0.2c0.9,1.8,2,2.7,3.3,2.7c0.5,0,0.9-0.1,1.3-0.3c0.4-0.2,0.8-0.6,1.2-1c0.4-0.5,0.8-1.7,1.4-3.7
			c0.6-2,1.2-4.9,2-8.7l2.4-11.6l2.6-12.2c-1.3,0-2.2-0.1-3-0.1c-1.1,0-2.2,0-3,0.1L24.8,221.8z"/>
		<path d="M69.5,240.1l0.8,1.2l-0.1,0.4c-3.9,2.5-7,4.2-9.4,5.1c-2.4,0.9-4.5,1.4-6.3,1.4c-1.6,0-3.1-0.3-4.5-0.9
			c-1.4-0.6-2.4-1.5-3-2.7c-0.6-1.2-0.9-2.4-0.9-3.7c0-2.2,0.5-4.9,1.4-8.3c0.9-3.4,2.1-5.9,3.5-7.5c1.4-1.6,3.7-3.3,6.8-4.9
			c3.1-1.6,5.9-2.5,8.1-2.5c1.9,0,3.5,0.4,4.7,1.3c1.2,0.9,1.8,2.2,1.8,3.8c0,2-0.7,3.9-2,5.5c-1.3,1.6-3.6,3-6.7,4.2
			c-3.1,1.1-6.3,1.9-9.6,2.4c-0.2,1.5-0.4,2.8-0.4,4c0,2,0.5,3.3,1.5,4c1,0.7,2.2,1.1,3.4,1.1c0.9,0,1.9-0.2,3.1-0.5
			c1.2-0.3,2.1-0.7,2.9-1c0.8-0.4,2.3-1.2,4.5-2.5L69.5,240.1z M54.3,233.4c4.6-0.9,7.6-2.3,9.2-4.3c1.6-1.9,2.4-3.7,2.4-5.4
			c0-1-0.3-1.7-0.9-2.2c-0.6-0.5-1.4-0.8-2.3-0.8c-1.8,0-3.4,0.9-4.7,2.6S55.5,228.3,54.3,233.4z"/>
		<path d="M76.8,248l-0.9-0.7c0.7-1.6,1.6-4.2,2.6-7.8c1.1-3.6,1.9-6.8,2.4-9.5c0.5-2.7,0.7-4.4,0.7-5.1c0-0.7-0.3-1-0.8-1
			c-0.7,0-2.3,0.8-4.7,2.5l-0.5,0l-0.7-1l0-0.4c1.1-0.9,2.5-1.9,4-2.9c1.5-1.1,2.9-2,4.1-2.7c1.2-0.7,2.2-1.2,2.8-1.3
			c0.6-0.2,1.2-0.3,1.7-0.3c1.2,0,1.8,0.6,1.8,1.9c0,0.9-0.2,2.3-0.6,4.1c-0.4,1.8-1.2,4.8-2.5,9.1c2.5-4.2,5.6-7.7,9.4-10.7
			c3.8-3,6.8-4.4,9.2-4.4c1.9,0,2.8,0.9,2.8,2.8c0,1-0.3,2.5-0.8,4.4c-0.5,1.9-1.3,4.8-2.4,8.5c-0.7,2.5-1.3,4.4-1.5,5.8
			c-0.3,1.4-0.4,2.3-0.4,2.7c0,0.7,0.3,1.1,0.8,1.1c0.9,0,2.5-0.8,4.8-2.5l0.4,0l0.7,1.2l-0.1,0.4c-3.8,2.6-6.4,4.2-8.1,5
			c-1.6,0.7-3,1.1-4.2,1.1c-0.9,0-1.5-0.3-1.9-1c-0.3-0.6-0.5-1.3-0.5-2c0-1.6,0.8-4.9,2.3-9.9c1.7-5.4,2.5-8.8,2.5-10.3
			c0-0.8-0.4-1.2-1.3-1.2c-0.4,0-0.9,0.2-1.6,0.5s-1.7,1.1-3,2.3c-1.3,1.2-2.5,2.7-3.7,4.2c-1.1,1.6-2.1,3.3-2.9,5.1
			c-0.8,1.8-1.5,3.8-2.1,5.9c-0.5,2.1-0.9,3.8-1,5C81.1,247.1,78.7,247.5,76.8,248z"/>
		<path d="M113.9,226.6l-0.7-1l0.1-0.4c3.9-2.7,6.9-4.7,9-5.8c2.2-1.1,3.8-1.7,5.1-1.7c0.5,0,1,0.2,1.4,0.6s0.6,1,0.6,1.6
			c0,0.9-0.2,2-0.5,3.3c-0.3,1.3-1.1,3.9-2.2,7.6c-1.9,6.4-2.9,10.1-2.9,11.2c0,0.3,0.1,0.5,0.3,0.7c0.2,0.2,0.4,0.3,0.6,0.3
			c0.7,0,2.4-0.9,5.3-2.8l0.4,0l0.7,1.2l-0.1,0.4c-1.5,1-3.4,2.1-5.5,3.4c-2.1,1.3-3.6,2.1-4.6,2.4c-0.9,0.3-1.7,0.5-2.4,0.5
			c-0.9,0-1.5-0.3-1.9-0.9c-0.4-0.6-0.6-1.3-0.6-2.2s0.1-2,0.4-3.1c0.3-1.2,0.8-3.2,1.6-6.1c1.8-6.4,2.8-10.2,2.8-11.3
			c0-0.6-0.3-0.8-0.8-0.8c-0.8,0-2.7,1-5.7,2.9L113.9,226.6z M124.3,208.4c0-1.2,0.4-2.3,1.3-3.2c0.9-0.9,2-1.3,3.3-1.3
			c1.1,0,2,0.3,2.7,0.9s1,1.4,1,2.4c0,1.2-0.4,2.3-1.2,3.3c-0.8,1-1.9,1.5-3.3,1.5c-1.3,0-2.3-0.3-2.9-1
			C124.6,210.4,124.3,209.5,124.3,208.4z"/>
		<path d="M133.3,247.4c0.4-0.9,0.6-2,0.9-3.4c0.2-1.4,0.3-2.2,0.3-2.4s0-0.5,0-0.7l1.6-0.1l0.4,1.9c0.7,0.2,1.2,0.4,1.7,0.4
			c0.8,0,1.6-0.3,2.5-0.8c0.9-0.5,2.2-1.7,3.8-3.7c1.6-2,2.7-3.3,3.2-4c-0.7-3.7-1.2-6.3-1.6-7.8s-0.9-2.5-1.6-3
			c-0.7-0.5-1.4-0.7-2-0.7c-0.8,0-1.7,0.3-2.6,0.8c-0.9,0.5-1.5,1.1-2,1.9l-0.4,0.1l-1.1-0.6l-0.1-0.3c2.2-3.2,3.5-5.2,3.8-6.1
			c1.8-0.8,3.4-1.2,5-1.2c2.1,0,3.7,0.5,4.7,1.5c1.1,1,1.8,2.2,2.2,3.4c0.4,1.2,0.7,3.1,1.1,5.6c3.2-4.2,5.3-6.8,6.4-7.9
			c1.1-1,2.1-1.7,3-2.1c0.9-0.4,1.7-0.5,2.5-0.5c0.6,0,1.4,0.2,2.3,0.5c-0.8,1.7-1.3,3.9-1.5,6.7l-1.4,0.2l-0.6-1.7
			c-0.5-0.2-0.9-0.3-1.3-0.3c-1.2,0-2.4,0.5-3.6,1.5c-1.2,1-2.9,3-5.3,6.1c0.7,4.1,1.3,6.9,1.8,8.5c0.5,1.6,1,2.7,1.5,3.2
			c0.5,0.5,1.1,0.7,1.6,0.7c1,0,2.7-0.9,5-2.8l0.4,0l0.8,1.1l-0.1,0.4c-3.8,3.1-6.3,4.9-7.5,5.5c-1.2,0.6-2.2,0.9-3.1,0.9
			c-1,0-1.9-0.4-2.7-1.1c-0.8-0.7-1.4-1.7-1.8-2.9c-0.4-1.2-0.8-3.6-1.4-7.1c-2.6,3.4-4.4,5.7-5.5,6.9s-2,2.1-2.7,2.7s-1.4,1-2,1.2
			c-0.6,0.2-1.3,0.3-2,0.3c-0.4,0-0.8,0-1-0.1C134.8,248,134.2,247.8,133.3,247.4z"/>
		<path d="M267.9,207.6l-0.3-0.3l0.2-1.3l0.3-0.3c4.7-0.5,9.2-1.5,13.4-2.8l0.8,0.7L280,213c-0.6,2.7-1.9,8.2-3.8,16.6
			c-1.4,6.2-2.2,10-2.4,11.6c-0.1,0.8-0.2,1.3-0.2,1.7c0,0.7,0.2,1,0.7,1c0.5,0,2.1-0.8,4.6-2.5l0.4,0l0.7,1.2l-0.1,0.4
			c-4.1,2.8-6.8,4.5-8,5.1c-1.3,0.6-2.3,0.9-3.2,0.9c-0.8,0-1.4-0.3-1.8-0.9s-0.6-1.2-0.6-2c0-1.1,0.4-3.2,1.3-6.1
			c0.4-1.5,1-3.7,1.6-6.3c-2.5,4.4-5.5,8-9,11c-3.5,3-6.3,4.5-8.5,4.5c-1.3,0-2.3-0.5-3.1-1.6c-0.7-1.1-1.1-2.5-1.1-4.4
			c0-2.5,0.4-5.1,1.1-7.8c0.7-2.7,1.5-4.9,2.5-6.7c1-1.8,1.8-3,2.5-3.5c0.7-0.6,2.2-1.6,4.5-2.9c2.3-1.4,4.1-2.3,5.2-2.6
			c1.2-0.4,2.4-0.6,3.7-0.6c1.2,0,2.7,0.2,4.5,0.6l1.1-6.3c0.3-1.9,0.5-3.2,0.5-3.9c0-0.5-0.1-0.9-0.4-1.2s-0.8-0.4-1.5-0.4
			C270.6,207.7,269.5,207.7,267.9,207.6z M270.9,223.1c-1.6-0.7-3.5-1-5.7-1c-1.7,0-2.9,0.3-3.7,0.8c-0.8,0.5-1.7,2-2.7,4.4
			c-1,2.4-1.8,5-2.4,7.6c-0.6,2.7-0.9,5-0.9,6.9c0,1.4,0.4,2.1,1.2,2.1c0.7,0,1.7-0.4,2.8-1.2c1.1-0.8,2.6-2.2,4.3-4.3
			c1.7-2,3.1-4.2,4.2-6.5c1.1-2.3,1.9-4.4,2.3-6.3L270.9,223.1z"/>
		<path d="M316.8,241.4l0.7,1.2l-0.1,0.4c-4,2.7-6.7,4.4-8.2,5.1c-1.5,0.7-2.7,1.1-3.7,1.1c-0.7,0-1.3-0.3-1.7-0.8
			c-0.4-0.5-0.6-1.2-0.6-2c0-0.8,0.2-2.1,0.5-3.7c0.4-1.6,1.1-4.5,2.3-8.7c-3.7,5.7-7,9.7-9.9,11.9c-2.9,2.2-5.3,3.3-7.2,3.3
			c-1,0-1.9-0.4-2.6-1.2c-0.7-0.8-1.1-2.3-1.1-4.4c0-1.9,0.3-4.1,0.9-6.6c0.6-2.5,1.5-5,2.6-7.6c0.6-1.3,1.2-2.3,2-3.1
			c0.8-0.8,2.5-2,5.1-3.8c2.6-1.7,4.4-2.8,5.5-3.1s2.3-0.5,3.7-0.5c1,0,2.1,0.1,3.4,0.4c1.3,0.3,2.5,0.7,3.6,1.2l3-1.6l1.1,0.7
			c-0.5,1.2-1.2,3.4-2,6.5l-2.4,10.1c-0.9,3.6-1.3,5.8-1.3,6.6c0,0.8,0.3,1.2,0.9,1.2c0.7,0,2.4-0.9,5.2-2.6H316.8z M307.6,223.5
			c-2-0.9-3.8-1.3-5.4-1.3c-1.7,0-3.1,0.6-4.1,1.9c-1.1,1.2-2.2,4-3.4,8.3c-1.2,4.3-1.8,7.4-1.8,9.5c0,1.5,0.4,2.2,1.3,2.2
			c0.9,0,2.6-1.3,4.9-3.8s4.3-5.3,5.8-8.4C306.4,228.8,307.3,226,307.6,223.5z"/>
		<path d="M321.8,227c1.5-3.8,2.3-6.4,2.5-7.9c1.2-0.2,2.3-0.4,3.3-0.4c1,0,2.2,0,3.5,0.1c2.5,0.2,4.4,0.3,5.6,0.3
			c2,0,3.6-0.2,4.8-0.7l1,1c-2.5,2.6-4.7,5.6-6.5,9.1c-1.8,3.5-2.6,6.9-2.6,10.2c0,4.1,1.2,6.2,3.7,6.2c0.6,0,1.2-0.2,1.8-0.5
			c0.6-0.3,1.6-1.1,2.8-2.4c1.2-1.3,2.3-2.9,3.3-4.7c0.9-1.8,1.7-3.6,2.3-5.4c0.6-1.8,1.1-4,1.7-6.6c0.6-2.6,0.9-4.3,0.9-4.9v-0.4
			c2.8-0.4,5.2-1,7.2-1.6l0.9,0.5c-3,9.5-4.5,16.5-4.5,21c0,1.8,0.4,3.1,1.2,3.9c0.8,0.7,1.7,1.1,2.7,1.1c1,0,2.1-0.4,3.3-1.2
			c1.2-0.8,2.5-2.1,3.8-3.9c1.3-1.8,2.4-4,3.2-6.4c0.8-2.5,1.2-4.6,1.2-6.4c0-1.1-0.3-2-0.8-2.7s-1.3-1-2.3-1
			c-0.6,0-1.2,0.1-1.8,0.4l-0.5-0.1l-0.5-0.9l0.1-0.4c1.8-1.2,3.3-2.4,4.4-3.5c0.6-0.2,1.2-0.2,1.6-0.2c1.5,0,2.7,0.5,3.5,1.6
			c0.9,1.1,1.3,2.6,1.3,4.5c0,2.9-0.8,5.9-2.3,9c-1.5,3.1-3.5,5.9-5.8,8.2c-2.3,2.4-4.6,4.1-6.7,5.3s-4.2,1.7-6,1.7
			c-1.6,0-3.1-0.6-4.4-1.7c-1.3-1.1-1.9-2.9-1.9-5.3c0-1.2,0.2-2.8,0.6-4.8l-1.7,2.8c-0.5,0.9-1.2,1.8-2.1,2.8
			c-0.8,1-1.8,1.9-2.8,2.8c-1.1,0.9-2.1,1.6-3,2.1s-1.7,0.9-2.5,1.1c-0.7,0.2-1.5,0.3-2.2,0.3c-2,0-3.6-0.7-5-2.2
			c-1.3-1.4-2-3.6-2-6.4c0-2.7,0.7-5.3,2.1-7.8c1.4-2.5,4.5-5.9,9.2-10.2c-1.8,0.5-3.5,0.7-5.2,0.7c-0.2,0-0.7,0-1.3-0.1
			c-1.2,0-2-0.1-2.4-0.1c-0.9,0-1.7,0.1-2.6,0.2c-0.5,0.9-0.8,1.6-1.1,2.1c-0.5,1-0.8,1.6-0.9,1.7l-0.4,0.2H322L321.8,227z"/>
		<path d="M379.1,248.9l-0.9-0.7c0.7-1.6,1.6-4.2,2.6-7.8c1.1-3.6,1.9-6.8,2.4-9.5s0.7-4.4,0.7-5.1c0-0.7-0.3-1-0.8-1
			c-0.7,0-2.3,0.8-4.7,2.5l-0.5,0l-0.7-1l0-0.4c1.1-0.9,2.5-1.9,4-2.9c1.5-1.1,2.9-2,4.1-2.7c1.2-0.7,2.2-1.2,2.8-1.3
			c0.6-0.2,1.2-0.3,1.7-0.3c1.2,0,1.8,0.6,1.8,1.9c0,0.9-0.2,2.3-0.6,4.1c-0.4,1.8-1.2,4.8-2.5,9.1c2.5-4.2,5.6-7.7,9.4-10.7
			c3.8-3,6.8-4.4,9.2-4.4c1.9,0,2.8,0.9,2.8,2.8c0,1-0.3,2.5-0.8,4.4c-0.5,1.9-1.3,4.8-2.4,8.5c-0.7,2.5-1.3,4.4-1.5,5.8
			c-0.3,1.4-0.4,2.3-0.4,2.7c0,0.7,0.3,1.1,0.8,1.1c0.9,0,2.5-0.8,4.8-2.5l0.4,0l0.7,1.2l-0.1,0.4c-3.8,2.6-6.4,4.2-8.1,5
			c-1.6,0.7-3,1.1-4.2,1.1c-0.9,0-1.5-0.3-1.9-1c-0.3-0.6-0.5-1.3-0.5-2c0-1.6,0.8-4.9,2.3-9.9c1.7-5.4,2.5-8.8,2.5-10.3
			c0-0.8-0.4-1.2-1.3-1.2c-0.4,0-0.9,0.2-1.6,0.5c-0.7,0.3-1.7,1.1-3,2.3c-1.3,1.2-2.5,2.7-3.7,4.2c-1.1,1.6-2.1,3.3-2.9,5.1
			c-0.8,1.8-1.5,3.8-2.1,5.9c-0.5,2.1-0.9,3.8-1,5C383.4,247.9,381,248.3,379.1,248.9z"/>
	</g>
	<path class="st4" d="M238.9,260.9c-1.8,2.5-4.6,5.9-9,9.1c-4.5,3.4-8.9,5.2-12,6.3c2.2-0.1,5-0.4,8.1-1.3c2.7-0.8,5-1.7,6.7-2.6
		c1.1-1.1,2.3-2.6,3.5-4.4C237.8,265.2,238.5,262.6,238.9,260.9z"/>
	<path class="st4" d="M205.4,242.8c1.7,1.5,4.6,3.5,8.7,4.9c7.1,2.3,13.3,1,15.7,0.4c-2.6,1-6.6,2.2-11.5,2.2
		c-1.8,0-3.4-0.2-4.8-0.4c-1.2-0.4-3.3-1.2-5.3-3.1C206.6,245.3,205.8,243.8,205.4,242.8z"/>
	<path class="st4" d="M185.6,217.1c-0.3,0.4-0.7,1.1-0.9,2c-0.2,0.8-0.2,1.5-0.2,2c0.4,0.4,0.8,0.9,1.2,1.3c4.5,4.7,9.5,8.2,14.5,11
		c1.1,0.8,2.1,1.6,3.2,2.3c-0.1-0.4-0.2-0.9-0.2-1.3c-2.5-1.2-4.5-2.5-5.8-3.4c-3.5-2.4-7.9-5.5-10.5-10.8
		C186.2,219,185.8,217.8,185.6,217.1z"/>
	<path class="st4" d="M147.9,156.3c0.5,0.9,1.2,2.3,2,4c0.8,1.7,2,4.5,3.5,8.7c2.8,8,2.1,8.5,3.8,10.2c1.7,1.6,2.6,1.4,7.2,4
		c3.1,1.7,5.4,3.3,6.9,4.5c0,0.3,0,1-0.5,1.7c-0.5,0.7-1.1,1-1.3,1.1c-4.8-3.3-9.6-6.7-14.4-10c-1.2-3-2.4-6.2-3.5-9.6
		C149.9,165.7,148.7,160.8,147.9,156.3z"/>
	<path class="st4" d="M255.2,156.3c-0.5,0.9-1.2,2.3-2,4c-0.8,1.7-2,4.5-3.5,8.7c-2.8,8-2.1,8.5-3.8,10.2c-1.7,1.6-2.6,1.4-7.2,4
		c-3.1,1.7-5.4,3.3-6.9,4.5c0,0.3,0,1,0.5,1.7c0.5,0.7,1.1,1,1.3,1.1c4.8-3.3,9.6-6.7,14.4-10c1.2-3,2.4-6.2,3.5-9.6
		C253.2,165.7,254.4,160.8,255.2,156.3z"/>
	<path class="st4" d="M186.1,117.7c0.4,1.1,1.1,2.4,2.1,3.8c0.6,0.8,1.2,1.5,1.8,2c0.8,0.7,1.7,1.4,2.8,2c1.6,1.1,3.2,1.9,4.6,2.5
		c-0.6-1.2-1.6-2.6-2.9-4.1c-0.7-0.8-1.4-1.4-2-2c-0.7-0.7-1.5-1.4-2.5-2.1C188.6,118.8,187.2,118.1,186.1,117.7z"/>
	<path class="st4" d="M217.6,117.7c-0.4,1.1-1.1,2.4-2.1,3.8c-0.6,0.8-1.2,1.5-1.8,2c-0.8,0.7-1.7,1.4-2.8,2
		c-1.6,1.1-3.2,1.9-4.6,2.5c0.6-1.2,1.6-2.6,2.9-4.1c0.7-0.8,1.4-1.4,2-2c0.7-0.7,1.5-1.4,2.5-2.1
		C215.1,118.8,216.5,118.1,217.6,117.7z"/>
	<polygon class="st4" points="201.6,107.7 197.4,116.9 201.6,125.4 205.5,118.1 	"/>
</g>
</svg>
